<svg width="25" height="25" viewBox="0 0 25 25" fill="none" xmlns="http://www.w3.org/2000/svg">
    <rect width="25" height="25" fill="white"/>
    <path d="M2.73431 7.96533H0.594598C0.266191 7.96533 0 8.23115 0 8.55909C0 8.88704 0.266191 9.15286 0.594598 9.15286H2.73426C3.06271 9.15286 3.3289 8.88704 3.3289 8.55909C3.3289 8.23115 3.06271 7.96533 2.73431 7.96533Z" fill="#333333"/>
    <path d="M23.9497 7.96509H21.81C21.4816 7.96509 21.2154 8.2309 21.2154 8.55885C21.2154 8.8868 21.4816 9.15261 21.81 9.15261H23.9497C24.2781 9.15261 24.5443 8.8868 24.5443 8.55885C24.5443 8.2309 24.2781 7.96509 23.9497 7.96509Z" fill="#333333"/>
    <path d="M5.18408 15.6368C4.95188 15.4049 4.57542 15.4049 4.34316 15.6368L2.78682 17.191C2.55462 17.4228 2.55462 17.7988 2.78682 18.0307C2.90295 18.1466 3.05513 18.2046 3.20726 18.2046C3.35939 18.2046 3.51161 18.1466 3.62769 18.0307L5.18408 16.4765C5.41628 16.2447 5.41628 15.8687 5.18408 15.6368Z" fill="#333333"/>
    <path d="M20.6689 0.173907C20.4366 -0.0579691 20.0602 -0.0579691 19.8279 0.173907L18.3142 1.68549C18.082 1.91737 18.082 2.29335 18.3142 2.52518C18.4304 2.64105 18.5826 2.69905 18.7347 2.69905C18.8869 2.69905 19.039 2.64105 19.1551 2.52513L20.6688 1.01359C20.901 0.781715 20.901 0.405736 20.6689 0.173907Z" fill="#333333"/>
    <path d="M6.22908 1.68456L4.71618 0.173836C4.48397 -0.0579452 4.10747 -0.0579452 3.87526 0.173836C3.64306 0.405713 3.64306 0.781691 3.87526 1.01356L5.38816 2.52434C5.50429 2.64025 5.65647 2.69826 5.80859 2.69826C5.96072 2.69826 6.11295 2.64025 6.22903 2.52434C6.46123 2.29246 6.46123 1.91648 6.22908 1.68456Z" fill="#333333"/>
    <path d="M21.7575 17.1912L20.207 15.6427C19.9747 15.4108 19.5983 15.4108 19.366 15.6427C19.1338 15.8746 19.1338 16.2506 19.366 16.4824L20.9167 18.0308C21.0328 18.1468 21.185 18.2048 21.3371 18.2048C21.4893 18.2048 21.6414 18.1467 21.7575 18.0308C21.9897 17.799 21.9897 17.423 21.7575 17.1912Z" fill="#333333"/>
    <path d="M12.2721 1.61255C8.16047 1.61255 4.81549 5.10652 4.81549 9.40125C4.81549 11.3979 5.53169 13.5471 6.78051 15.2976C7.73961 16.6421 8.2465 18.138 8.2465 19.6236V23.3567C8.2465 24.0116 8.77999 24.5443 9.4357 24.5443H15.1085C15.7642 24.5443 16.2977 24.0116 16.2977 23.3567V19.6236C16.2977 18.138 16.8046 16.6421 17.7636 15.2976C19.0124 13.5471 19.7286 11.3979 19.7286 9.40125C19.7286 5.10652 16.3836 1.61255 12.2721 1.61255ZM15.1084 23.3569H9.4356V22.5802H12.272C12.6004 22.5802 12.8667 22.3144 12.8667 21.9864C12.8667 21.6585 12.6004 21.3927 12.272 21.3927H9.4356V20.6161H15.1086L15.1092 23.3567C15.1091 23.3569 15.1089 23.3569 15.1084 23.3569ZM11.4382 12.279L10.643 10.5826H13.901L13.1059 12.279C13.0746 12.3458 13.0561 12.4179 13.0511 12.4914L12.59 19.4286H11.9541L11.493 12.4914C11.4881 12.4179 11.4695 12.3458 11.4382 12.279ZM16.7949 14.6087C15.7329 16.0975 15.1527 17.7598 15.1108 19.4286H13.7819L14.2302 12.6813L15.3743 10.2405C15.4605 10.0567 15.4466 9.8415 15.3374 9.67014C15.2283 9.49886 15.0391 9.39506 14.8357 9.39506H9.70822C9.50487 9.39506 9.31568 9.49886 9.20652 9.67014C9.0974 9.84142 9.08348 10.0566 9.1697 10.2405L10.3138 12.6813L10.7622 19.4285H9.4331C9.39115 17.7597 8.81105 16.0974 7.74897 14.6086C6.65665 13.0774 6.00454 11.1307 6.00454 9.4012C6.00454 5.76126 8.81609 2.80002 12.2719 2.80002C15.7277 2.80002 18.5393 5.76126 18.5393 9.4012C18.5394 11.1308 17.8873 13.0775 16.7949 14.6087Z" fill="#333333"/>
</svg>
