<svg width="105" height="49" viewBox="0 0 105 49" fill="none" xmlns="http://www.w3.org/2000/svg">
    <path d="M104.14 43.6466V44.899H102.89C102.311 44.899 102.069 44.5414 102.069 44.223C102.069 43.8961 102.311 43.6466 102.89 43.6466H104.14ZM105 42.9076H102.89C101.905 42.9076 101.21 43.4525 101.21 44.223C101.21 44.8445 101.64 45.3656 102.304 45.5606L100.952 46.9526H102.007L103.226 45.638H104.14V46.9526H105V42.9076ZM99.9754 46.9526V42.9076H99.889L97.0602 45.1868V42.9076H96.2006V46.9526H96.2861L99.1157 44.6734V46.9526H99.9754ZM95.1065 42.9076H94.2468V44.5576H92.3085V42.9076H91.4489V46.9526H92.3085V45.2958H94.2468V46.9526H95.1065V42.9076ZM88.4559 46.2681C87.9093 46.2681 87.2917 45.8092 87.2917 44.9305C87.2917 44.0587 87.9093 43.6007 88.4559 43.6007C89.0264 43.6007 89.6123 43.9736 89.6123 44.9305C89.6123 45.8798 89.0264 46.2681 88.4559 46.2681ZM89.573 46.9526H90.4327V42.9076H89.573V43.4295C89.3934 43.1571 89.0033 42.8616 88.3464 42.8616C87.4867 42.8616 86.432 43.5462 86.432 44.9305C86.432 46.3388 87.4867 47.0071 88.3464 47.0071C89.0033 47.0071 89.5422 46.6257 89.573 46.2996V46.9526ZM85.5723 42.9076H81.8368V46.9526H82.6965V43.6466H84.7127V46.9526H85.5723V42.9076ZM80.7035 46.9526V42.9076H80.5786L78.3126 45.6151L76.0458 42.9076H75.921V46.9526H76.7806V45.2183L78.2493 46.9526H78.3751L79.8438 45.2183V46.9526H80.7035ZM74.1623 44.9382C74.1623 45.8254 73.5378 46.2604 72.9904 46.2604C72.4438 46.2604 71.8185 45.8254 71.8185 44.9382C71.8185 44.0434 72.4438 43.6083 72.9904 43.6083C73.5378 43.6083 74.1623 44.0434 74.1623 44.9382ZM72.9904 42.8616C72.1384 42.8616 70.9588 43.5385 70.9588 44.9382C70.9588 46.3456 72.1384 47.0071 72.9904 47.0071C73.8423 47.0071 75.0228 46.3456 75.0228 44.9382C75.0228 43.5385 73.8423 42.8616 72.9904 42.8616ZM69.2155 46.9526H70.3335L68.278 44.8607L70.177 42.9076H69.0753L67.4423 44.5721V42.9076H66.5826V46.9526H67.4423V45.7164L67.7306 45.4201L69.2155 46.9526Z" fill="black"/>
    <path d="M60.8661 43.6372V44.8896H59.6155C59.0372 44.8896 58.7952 44.532 58.7952 44.2127C58.7952 43.8858 59.0372 43.6372 59.6155 43.6372H60.8661ZM61.7257 42.8982H59.6155C58.6309 42.8982 57.9355 43.443 57.9355 44.2127C57.9355 44.8351 58.3649 45.3561 59.0296 45.5503L57.6772 46.9431H58.7319L59.9517 45.6286H60.8661V46.9431H61.7257V42.8982ZM54.8014 46.2586C54.2539 46.2586 53.6372 45.7997 53.6372 44.9202C53.6372 44.0493 54.2539 43.5903 54.8014 43.5903C55.3719 43.5903 55.9578 43.9641 55.9578 44.9202C55.9578 45.8695 55.3719 46.2586 54.8014 46.2586ZM55.9185 46.9431H56.7782V42.8982H55.9185V43.4192C55.7389 43.1468 55.3488 42.8513 54.6919 42.8513C53.8322 42.8513 52.7775 43.5359 52.7775 44.9202C52.7775 46.3284 53.8322 46.9968 54.6919 46.9968C55.3488 46.9968 55.8877 46.6162 55.9185 46.2893V46.9431ZM51.0342 46.9431H52.1522L50.0967 44.8504L51.9957 42.8982H50.8939L49.261 44.5626V42.8982H48.4013V46.9431H49.261V45.706L49.5501 45.4106L51.0342 46.9431ZM45.8924 46.2501C45.3373 46.2501 44.7206 45.815 44.7206 44.9279C44.7206 44.0339 45.3373 43.598 45.8924 43.598C46.244 43.598 46.6118 43.7462 46.8146 44.0722L47.5802 43.7538C47.1901 43.1468 46.4784 42.8513 45.8924 42.8513C45.0328 42.8513 43.8523 43.5205 43.8609 44.9279C43.8686 46.3284 45.0328 46.9968 45.8924 46.9968C46.4784 46.9968 47.1901 46.7013 47.5802 46.0951L46.8146 45.7759C46.6118 46.1028 46.244 46.2501 45.8924 46.2501ZM41.2896 46.2586C40.7191 46.2586 40.1331 45.8695 40.1331 44.9202C40.1331 43.9641 40.7191 43.5903 41.2896 43.5903C41.8362 43.5903 42.4538 44.0493 42.4538 44.9202C42.4538 45.7997 41.8362 46.2586 41.2896 46.2586ZM41.3991 42.8513C40.7422 42.8513 40.3512 43.1468 40.1716 43.4192V42.8982H39.3128V48.4212H40.1716V46.2893C40.2033 46.6162 40.7422 46.9968 41.3991 46.9968C42.2588 46.9968 43.3135 46.3284 43.3135 44.9202C43.3135 43.5359 42.2588 42.8513 41.3991 42.8513ZM35.4054 44.5473C35.5149 43.9096 36.0768 43.598 36.5379 43.598C36.9998 43.598 37.5387 43.9096 37.6473 44.5473H35.4054ZM38.5079 45.2548C38.5233 45.1535 38.531 45.0454 38.531 44.9279C38.531 43.5282 37.3899 42.8513 36.5379 42.8513C35.6868 42.8513 34.5063 43.5282 34.5063 44.9279C34.5063 46.3361 35.6868 46.9968 36.5379 46.9968C37.1247 46.9968 37.7491 46.7635 38.1717 46.2739L37.4446 45.8849C37.2179 46.1258 36.9057 46.2501 36.5379 46.2501C36.0614 46.2501 35.4909 45.924 35.3977 45.2548H38.5079ZM33.6467 42.8982H29.9112V46.9431H30.7709V43.6372H32.787V46.9431H33.6467V42.8982ZM28.1927 44.9279C28.1927 45.815 27.5666 46.2501 27.02 46.2501C26.4725 46.2501 25.8472 45.815 25.8472 44.9279C25.8472 44.0339 26.4725 43.598 27.02 43.598C27.5666 43.598 28.1927 44.0339 28.1927 44.9279ZM27.02 42.8513C26.168 42.8513 24.9876 43.5282 24.9876 44.9279C24.9876 46.3361 26.168 46.9968 27.02 46.9968C27.8719 46.9968 29.0515 46.3361 29.0515 44.9279C29.0515 43.5282 27.8719 42.8513 27.02 42.8513ZM24.1287 42.8982H20.2521V45.8695C20.2521 46.056 20.158 46.2501 19.9236 46.2501C19.7132 46.2501 19.5644 46.1956 19.3924 46.1105V46.8495C19.5644 46.9355 19.791 46.9891 20.1349 46.9891C20.6584 46.9891 21.1118 46.8027 21.1118 45.9002V43.6372H23.2691V46.9431H24.1287V42.8982ZM15.7981 44.5473C15.9076 43.9096 16.4696 43.598 16.9306 43.598C17.3917 43.598 17.9314 43.9096 18.0409 44.5473H15.7981ZM18.9006 45.2548C18.916 45.1535 18.9237 45.0454 18.9237 44.9279C18.9237 43.5282 17.7826 42.8513 16.9306 42.8513C16.0786 42.8513 14.8991 43.5282 14.8991 44.9279C14.8991 46.3361 16.0786 46.9968 16.9306 46.9968C17.5174 46.9968 18.1419 46.7635 18.5644 46.2739L17.8373 45.8849C17.6107 46.1258 17.2984 46.2501 16.9306 46.2501C16.4542 46.2501 15.8836 45.924 15.7904 45.2548H18.9006ZM11.1319 46.2433V45.1228H12.2807C13.0865 45.1228 13.1797 45.5111 13.1797 45.7452C13.1797 45.9785 13.0548 46.2433 12.2807 46.2433H11.1319ZM11.1319 44.3915V43.598H12.2807C12.8282 43.598 12.8675 43.8236 12.8675 43.9794C12.8675 44.1506 12.8128 44.3915 12.2807 44.3915H11.1319ZM13.2037 44.7031C13.6023 44.5703 13.7272 44.2749 13.7272 43.9564C13.7272 43.2796 13.1489 42.8982 12.2807 42.8982H10.2731V46.9431H12.2807C13.3517 46.9431 14.0394 46.5694 14.0394 45.7452C14.0394 45.3093 13.7896 44.9126 13.2037 44.7031ZM6.48202 44.5473C6.59236 43.9096 7.15437 43.598 7.61628 43.598C8.07734 43.598 8.61623 43.9096 8.72572 44.5473H6.48202ZM9.58537 45.2548C9.60076 45.1535 9.60847 45.0454 9.60847 44.9279C9.60847 43.5282 8.4674 42.8513 7.61628 42.8513C6.76431 42.8513 5.58387 43.5282 5.58387 44.9279C5.58387 46.3361 6.76431 46.9968 7.61628 46.9968C8.20137 46.9968 8.82751 46.7635 9.24922 46.2739L8.52213 45.8849C8.29545 46.1258 7.98324 46.2501 7.61628 46.2501C7.13897 46.2501 6.56841 45.924 6.47518 45.2548H9.58537ZM3.63016 46.2041H1.27013C1.614 45.7376 1.61398 44.9049 1.61398 43.6763V43.6372H3.63016V46.2041ZM4.84138 46.2041H4.48983V42.8982H0.75433V43.6763C0.75433 44.9049 0.754328 45.7376 0.425858 46.2041H0.0118408V47.402H0.871513V46.9431H3.9817V47.402H4.84138V46.2041Z" fill="black"/>
    <path d="M67.9282 19.9081V30.4561L70.5773 31.1159V31.7749H60.2861L60.6411 30.4561H60.642V30.4535L67.9282 3.38851V18.8098H70.3567C71.2394 18.8098 72.0563 18.6404 72.8074 18.3041C73.5575 17.9669 74.2136 17.4544 74.7722 16.7656C75.3308 16.0777 75.7653 15.2127 76.075 14.1723C76.3846 13.1327 76.5386 11.8948 76.5386 10.4585C76.5386 7.61653 75.9501 5.51444 74.7722 4.15136C73.5952 2.78913 72.123 2.10801 70.3567 2.10801H68.2729L68.5689 1.00885H70.3567C72.8886 1.00885 75.0297 1.22169 76.7815 1.64654C78.5325 2.07138 79.9465 2.69377 81.0208 3.51367C82.0944 4.33441 82.8676 5.32372 83.3389 6.48077C83.8094 7.63866 84.0455 8.96428 84.0455 10.4585C84.0455 11.9527 83.8094 13.2792 83.3389 14.4362C82.8676 15.5932 82.0944 16.5826 81.0208 17.4025C79.9465 18.2232 78.5325 18.8456 76.7815 19.2704C75.0297 19.6953 72.8886 19.9081 70.3567 19.9081H67.9282Z" fill="black"/>
    <path d="M62.8328 6.62892V2.10801H61.0656C59.0648 2.10801 57.4601 2.74485 56.2532 4.01939C55.0462 5.29393 54.4431 7.14742 54.4431 9.57986C54.4431 12.0114 55.0462 13.8649 56.2532 15.1395C57.2471 16.1892 58.5105 16.8065 60.0434 16.9912L59.7141 18.2104L55.3259 28.0389C54.8255 29.1526 54.148 30.0533 53.2944 30.7421C52.4407 31.4309 51.3509 31.7749 50.0268 31.7749H44.0656V31.1159L46.2742 30.4561L50.2475 21.6662C50.6897 20.6701 51.2859 19.9005 52.0361 19.359C52.7871 18.8166 53.545 18.4284 54.3097 18.1943C55.1933 17.9014 56.1206 17.7396 57.0923 17.7107V17.491C55.1788 17.4323 53.486 17.1096 52.0138 16.5238C51.3663 16.2897 50.741 15.9815 50.1371 15.6009C49.5341 15.2203 48.9969 14.7436 48.5256 14.1723C48.0542 13.601 47.6719 12.942 47.3776 12.1945C47.0834 11.4478 46.9354 10.576 46.9354 9.57986C46.9354 8.31979 47.1715 7.16189 47.6428 6.10701C48.1133 5.05298 48.9011 4.15134 50.0045 3.40467C51.1088 2.65715 52.5664 2.07138 54.3764 1.64654C56.1873 1.22169 58.4173 1.00885 61.0656 1.00885H64.3452L62.8328 6.62892Z" fill="black"/>
    <path d="M81.7565 30.6757C82.5512 30.0899 83.2723 29.328 83.9207 28.3906C84.4792 27.5988 85.0096 26.5737 85.51 25.3136C86.0104 24.0536 86.3046 22.5449 86.3927 20.7868L87.2763 2.54733L84.185 1.66782V1.00885H104.998L97.4324 29.1142V2.10716H88.6014L87.7177 20.7868C87.6296 22.5449 87.3499 24.0536 86.8786 25.3136C86.4073 26.5737 85.9077 27.5988 85.3774 28.3906C84.7589 29.328 84.0669 30.0899 83.3022 30.6757H97.0124L96.7164 31.7748H83.3022C83.3022 33.0051 83.1038 34.0745 82.706 34.9829C82.3082 35.8913 81.8745 36.6678 81.4032 37.3123C80.8737 38.0743 80.2544 38.7188 79.5487 39.2459H78.2238V30.6757H81.7565Z" fill="black"/>
    <path fill-rule="evenodd" clip-rule="evenodd" d="M37.4653 2.50238C34.882 2.8174 32.3115 3.30949 29.8112 4.03062C29.8241 11.969 27.2656 19.24 21.6268 24.9801C20.7714 25.8519 19.875 26.6777 18.9272 27.4465C20.0795 28.0978 21.2864 28.653 22.5293 29.1102C31.759 24.6889 35.5449 11.8643 37.4653 2.50238Z" fill="black"/>
    <path fill-rule="evenodd" clip-rule="evenodd" d="M21.2512 29.6666C20.1666 29.2188 19.1128 28.6977 18.1008 28.1052C16.7801 29.0987 15.3858 29.9672 13.9265 30.7317C15.6963 30.8696 17.4807 30.6721 19.2154 30.2762C19.9074 30.1187 20.5874 29.9144 21.2512 29.6666Z" fill="black"/>
    <path fill-rule="evenodd" clip-rule="evenodd" d="M11.4987 22.3281C11.266 25.0398 11.6715 27.7455 12.5414 30.3312C14.1812 29.5369 15.7406 28.6191 17.2093 27.5446C15.0255 26.1347 13.0829 24.3825 11.4987 22.3281Z" fill="black"/>
    <path fill-rule="evenodd" clip-rule="evenodd" d="M8.10511 2.24622C0.853956 5.69947 -1.99794 14.7524 1.46896 21.813C3.27041 25.4799 7.47296 29.221 11.507 30.315C10.5592 27.3556 10.1999 24.2531 10.6533 21.1617C6.83739 15.4573 6.28911 8.71767 8.10511 2.24622Z" fill="black"/>
    <path fill-rule="evenodd" clip-rule="evenodd" d="M28.6696 0.607967C26.0281 0.246124 23.3499 0.00431108 20.6836 5.41072e-05C16.9062 -0.00505426 12.8192 0.349979 9.26928 1.73605C7.36775 7.8414 7.62266 14.2439 10.9142 19.7482C12.8713 11.1048 20.6494 5.8287 28.8252 3.31368C28.8056 2.41035 28.7525 1.50789 28.6696 0.607967Z" fill="black"/>
    <path fill-rule="evenodd" clip-rule="evenodd" d="M35.5462 2.80755C33.5934 2.4142 31.6328 2.05747 29.6628 1.76544C29.7287 2.52403 29.7732 3.28431 29.7946 4.0446C31.6816 3.51333 33.6062 3.10724 35.5462 2.80755Z" fill="black"/>
</svg>
