<svg width="25" height="25" viewBox="0 0 25 25" fill="none" xmlns="http://www.w3.org/2000/svg">
    <path d="M24.98 9.39815L23.808 5.82677C23.755 5.66488 23.6057 5.55554 23.4376 5.55554H16.6313L15.6177 0.320231C15.5818 0.134103 15.4211 0 15.2344 0H9.76565C9.57898 0 9.41842 0.134103 9.3825 0.320231L8.36882 5.55554H1.56248C1.39431 5.55554 1.24508 5.66488 1.19198 5.82677L0.020102 9.39815C-0.0197235 9.51944 0.000360843 9.65231 0.0738322 9.75574C0.147246 9.85935 0.265064 9.92055 0.390605 9.92055H7.52344L4.69497 24.5268C4.67231 24.6432 4.70218 24.7639 4.7764 24.8554C4.85061 24.9468 4.96133 25 5.07817 25H19.9219C20.0387 25 20.1493 24.9468 20.2235 24.8552C20.2977 24.7635 20.3276 24.643 20.3049 24.5266L17.4767 9.92065H24.6094C24.7351 9.92065 24.8529 9.85935 24.9262 9.75583C24.9997 9.65213 25.0196 9.51926 24.98 9.39815ZM17.0018 9.12696C16.885 9.12696 16.7743 9.18015 16.7 9.27185C16.6258 9.36352 16.5959 9.48389 16.6186 9.60037L19.4471 24.2063H5.55316L8.38147 9.60009C8.40413 9.48361 8.37426 9.36305 8.30004 9.27157C8.22582 9.18015 8.1151 9.12696 7.99826 9.12696H0.932426L1.84395 6.34916H8.68989C8.8766 6.34916 9.03733 6.21506 9.07327 6.02893L10.0869 0.793631H14.9131L15.927 6.02893C15.963 6.21506 16.1235 6.34916 16.3103 6.34916H23.1562L24.0677 9.12696H17.0018Z" fill="black"/>
    <path d="M4.29692 7.14282H2.7344C2.51879 7.14282 2.34375 7.32058 2.34375 7.53967C2.34375 7.75875 2.51873 7.93651 2.7344 7.93651H4.29692C4.51253 7.93651 4.68756 7.75875 4.68756 7.53967C4.68756 7.32058 4.51253 7.14282 4.29692 7.14282Z" fill="black"/>
    <path d="M7.42192 7.14282H5.8594C5.64379 7.14282 5.46875 7.32058 5.46875 7.53967C5.46875 7.75875 5.64373 7.93651 5.8594 7.93651H7.42192C7.63753 7.93651 7.81256 7.75875 7.81256 7.53967C7.81256 7.32058 7.63753 7.14282 7.42192 7.14282Z" fill="black"/>
    <path d="M19.1407 7.14282H17.5781C17.3625 7.14282 17.1875 7.32058 17.1875 7.53967C17.1875 7.75875 17.3625 7.93651 17.5781 7.93651H19.1407C19.3563 7.93651 19.5313 7.75875 19.5313 7.53967C19.5313 7.32058 19.3563 7.14282 19.1407 7.14282Z" fill="black"/>
    <path d="M22.2657 7.14282H20.7031C20.4875 7.14282 20.3125 7.32058 20.3125 7.53967C20.3125 7.75875 20.4875 7.93651 20.7031 7.93651H22.2657C22.4813 7.93651 22.6563 7.75875 22.6563 7.53967C22.6563 7.32058 22.4813 7.14282 22.2657 7.14282Z" fill="black"/>
    <path d="M12.5 15.4766C12.2844 15.4766 12.1093 15.6543 12.1093 15.8734V17.4607C12.1093 17.6798 12.2843 17.8576 12.5 17.8576C12.7156 17.8576 12.8906 17.6798 12.8906 17.4607V15.8734C12.8906 15.6544 12.7156 15.4766 12.5 15.4766Z" fill="black"/>
    <path d="M12.5 18.6509C12.2844 18.6509 12.1093 18.8286 12.1093 19.0477V20.635C12.1093 20.8541 12.2843 21.0319 12.5 21.0319C12.7156 21.0319 12.8906 20.8541 12.8906 20.635V19.0477C12.8906 18.8286 12.7156 18.6509 12.5 18.6509Z" fill="black"/>
    <path d="M12.5 12.3015C12.2844 12.3015 12.1093 12.4793 12.1093 12.6984V14.2857C12.1093 14.5047 12.2843 14.6825 12.5 14.6825C12.7156 14.6825 12.8906 14.5048 12.8906 14.2857V12.6984C12.8906 12.4793 12.7156 12.3015 12.5 12.3015Z" fill="black"/>
    <path d="M12.5 21.8254C12.2844 21.8254 12.1093 22.0032 12.1093 22.2223V23.8096C12.1093 24.0286 12.2843 24.2064 12.5 24.2064C12.7156 24.2064 12.8906 24.0287 12.8906 23.8096V22.2223C12.8906 22.0032 12.7156 21.8254 12.5 21.8254Z" fill="black"/>
    <path d="M12.5 0.793701C12.2844 0.793701 12.1093 0.971459 12.1093 1.19055V1.58739C12.1093 1.80642 12.2843 1.98424 12.5 1.98424C12.7156 1.98424 12.8906 1.80648 12.8906 1.58739V1.19055C12.8906 0.971459 12.7156 0.793701 12.5 0.793701Z" fill="black"/>
    <path d="M12.5 2.77808C12.2844 2.77808 12.1093 2.95583 12.1093 3.17492V4.76224C12.1093 4.98127 12.2843 5.15908 12.5 5.15908C12.7156 5.15908 12.8906 4.98133 12.8906 4.76224V3.17492C12.8906 2.95583 12.7156 2.77808 12.5 2.77808Z" fill="black"/>
    <path d="M12.5 5.95239C12.2844 5.95239 12.1093 6.13015 12.1093 6.34924V7.93656C12.1093 8.15559 12.2843 8.3334 12.5 8.3334C12.7156 8.3334 12.8906 8.15564 12.8906 7.93656V6.34924C12.8906 6.13021 12.7156 5.95239 12.5 5.95239Z" fill="black"/>
    <path d="M12.5 9.1272C12.2844 9.1272 12.1093 9.30496 12.1093 9.52404V11.1114C12.1093 11.3304 12.2843 11.5082 12.5 11.5082C12.7156 11.5082 12.8906 11.3304 12.8906 11.1114V9.52404C12.8906 9.30496 12.7156 9.1272 12.5 9.1272Z" fill="black"/>
</svg>
