<svg width="25" height="25" viewBox="0 0 25 25" fill="none" xmlns="http://www.w3.org/2000/svg">
    <rect width="25" height="25" fill="white"/>
    <path d="M24.8538 6.36342C24.7112 6.16966 24.4834 6.05212 24.2386 6.04569L21.9758 5.98709L22.233 5.18179C22.3611 4.78033 22.1305 4.35376 21.7181 4.22904L7.84441 0.0346377C7.43158 -0.0905183 6.99351 0.13424 6.86532 0.535587L4.70994 7.28518C4.58177 7.68664 4.81231 8.11321 5.22479 8.23792L8.03514 9.08759L7.57093 10.5414C7.50935 10.7342 7.52903 10.9428 7.62558 11.1215C7.72214 11.3002 7.88767 11.4341 8.08575 11.4941L9.36241 11.8801L6.1919 16.8676C5.73304 16.6705 5.22646 16.5604 4.69363 16.5604H0.782271C0.350234 16.5604 0 16.9012 0 17.3216V23.0484C0 23.4688 0.350234 23.8095 0.782271 23.8095H4.69363C6.74765 23.8095 8.41871 22.1836 8.41871 20.185C8.41871 19.253 8.05501 18.4023 7.45896 17.7595C7.47371 17.7405 7.48857 17.7217 7.50165 17.7012L10.9055 12.3466L12.5679 12.8493C12.6453 12.8726 12.7234 12.8837 12.8003 12.8837C13.1339 12.8837 13.4429 12.6744 13.5472 12.3482L14.0114 10.8943L19.0984 12.4324C19.1743 12.4553 19.2525 12.4666 19.3305 12.4666C19.4562 12.4666 19.5812 12.4371 19.6946 12.3791C19.8782 12.2851 20.0159 12.1241 20.0774 11.9313L20.3346 11.126L22.2332 12.3254C22.3616 12.4066 22.5099 12.4482 22.6592 12.4482C22.7488 12.4482 22.8388 12.4332 22.9251 12.4029C23.1555 12.3218 23.3336 12.1405 23.4063 11.9129L24.9647 7.03248C25.0375 6.8049 24.9964 6.55719 24.8538 6.36342ZM1.56454 18.0826H2.60754V22.2871H1.56454V18.0826ZM4.69363 22.2871H4.17208V18.0826H4.69363C5.88491 18.0826 6.85415 19.0257 6.85415 20.1848C6.85415 21.3439 5.88491 22.2871 4.69363 22.2871ZM12.2852 11.1696L9.29709 10.2661L9.5292 9.53922L12.5173 10.4427L12.2852 11.1696ZM18.8157 10.7528L6.43608 7.00997L8.12722 1.71418L20.5068 5.45689L20.1752 6.49521L19.1472 9.71422C19.1472 9.71445 19.1471 9.71461 19.1471 9.71477L18.8157 10.7528ZM22.2187 10.5013L20.817 9.61573L21.4934 7.49744L23.1641 7.54072L22.2187 10.5013Z" fill="#333333"/>
</svg>
