<svg width="25" height="25" viewBox="0 0 25 25" fill="none" xmlns="http://www.w3.org/2000/svg">
<g clip-path="url(#clip0)">
<rect width="25" height="25" fill="white"/>
<path d="M6.24981 7.66663H1.2499C1.01992 7.66663 0.833252 7.85329 0.833252 8.08327V23.083C0.833252 23.3134 1.01992 23.4997 1.2499 23.4997H6.24981C6.47979 23.4997 6.66646 23.3134 6.66646 23.083V8.08327C6.66651 7.85329 6.47984 7.66663 6.24981 7.66663ZM5.83317 22.6664H1.66659V8.49996H5.83317V22.6664Z" fill="black"/>
<path d="M7.08367 3.5H0.417131C0.187155 3.5 0.000488281 3.68667 0.000488281 3.91664V8.08324C0.000488281 8.31321 0.187155 8.49989 0.417131 8.49989H7.08367C7.31365 8.49989 7.50032 8.31321 7.50032 8.08324V3.91664C7.50037 3.68667 7.3137 3.5 7.08367 3.5ZM6.66703 7.66659H0.833776V4.33329H6.66703V7.66659Z" fill="black"/>
<path d="M24.5829 4.33325H7.08315C6.85317 4.33325 6.6665 4.51992 6.6665 4.7499V7.24986C6.6665 7.47984 6.85317 7.66651 7.08315 7.66651H24.5829C24.8133 7.66651 24.9995 7.47984 24.9995 7.24986V4.7499C24.9995 4.51992 24.8133 4.33325 24.5829 4.33325ZM24.1662 6.83322H7.49984V5.16659H24.1662V6.83322Z" fill="black"/>
<path d="M24.583 4.33325H24.1663C24.0426 4.33325 23.9255 4.38823 23.8463 4.48325L21.763 6.98322C21.6597 7.10694 21.6372 7.27989 21.7059 7.42652C21.7742 7.57276 21.9214 7.66651 22.083 7.66651H24.583C24.8134 7.66651 24.9996 7.47984 24.9996 7.24986V4.7499C24.9997 4.51992 24.8134 4.33325 24.583 4.33325ZM24.1663 6.83322H22.9726L24.1663 5.40072V6.83322Z" fill="black"/>
<path d="M22.0435 4.57324C21.9752 4.427 21.8281 4.33325 21.6664 4.33325H19.5831C19.4594 4.33325 19.3423 4.38823 19.2631 4.48325L17.1798 6.98322C17.0764 7.10694 17.0539 7.27989 17.1227 7.42652C17.191 7.57276 17.3381 7.66651 17.4998 7.66651H19.5831C19.7068 7.66651 19.8239 7.61152 19.9031 7.51651L21.9864 5.01654C22.0897 4.89281 22.1122 4.71987 22.0435 4.57324ZM19.3877 6.83317H18.3894L19.7785 5.16654H20.7768L19.3877 6.83317Z" fill="black"/>
<path d="M17.4602 4.57324C17.3919 4.427 17.2448 4.33325 17.0831 4.33325H14.9998C14.8761 4.33325 14.759 4.38823 14.6798 4.48325L12.5965 6.98322C12.4932 7.10694 12.4707 7.27989 12.5394 7.42652C12.6077 7.57276 12.7548 7.66651 12.9165 7.66651H14.9998C15.1236 7.66651 15.2406 7.61152 15.3198 7.51651L17.4032 5.01654C17.5065 4.89281 17.529 4.71987 17.4602 4.57324ZM14.8044 6.83317H13.8061L15.1952 5.16654H16.1936L14.8044 6.83317Z" fill="black"/>
<path d="M12.8772 4.57324C12.8088 4.427 12.6617 4.33325 12.5001 4.33325H10.4167C10.293 4.33325 10.1759 4.38823 10.0967 4.48325L8.01342 6.98322C7.90966 7.10694 7.88715 7.27989 7.9559 7.42652C8.02465 7.57276 8.17172 7.66651 8.33338 7.66651H10.4167C10.5404 7.66651 10.6575 7.61152 10.7367 7.51651L12.82 5.01654C12.9234 4.89281 12.9459 4.71987 12.8772 4.57324ZM10.2214 6.83317H9.22307L10.6118 5.16654H11.6101L10.2214 6.83317Z" fill="black"/>
<path d="M7.45631 3.73038L6.20634 1.23042C6.13549 1.08916 5.99135 1 5.83344 1H1.66681C1.5089 1 1.36472 1.08916 1.29392 1.23042L0.0439352 3.73038C-0.0206633 3.85953 -0.0135833 4.0129 0.0622455 4.1358C0.138514 4.2583 0.272252 4.3333 0.41683 4.3333H7.08337C7.22795 4.3333 7.36169 4.2583 7.43795 4.1358C7.51379 4.01285 7.52086 3.85953 7.45631 3.73038ZM1.09098 3.49997L1.92428 1.83329H5.57587L6.40921 3.49992H1.09098V3.49997Z" fill="black"/>
<path d="M3.74987 9.33325C2.8307 9.33325 2.08325 10.0808 2.08325 10.9999C2.08325 11.919 2.83075 12.6665 3.74987 12.6665C4.669 12.6665 5.4165 11.919 5.4165 10.9999C5.4165 10.0808 4.66905 9.33325 3.74987 9.33325ZM3.74987 11.8332C3.29031 11.8332 2.91654 11.4595 2.91654 10.9999C2.91654 10.5403 3.29026 10.1665 3.74987 10.1665C4.20944 10.1665 4.58321 10.5403 4.58321 10.9999C4.58321 11.4595 4.20949 11.8332 3.74987 11.8332Z" fill="black"/>
<path d="M3.74987 13.4998C2.8307 13.4998 2.08325 14.2473 2.08325 15.1664C2.08325 16.0856 2.83075 16.833 3.74987 16.833C4.669 16.833 5.4165 16.0855 5.4165 15.1664C5.41655 14.2473 4.66905 13.4998 3.74987 13.4998ZM3.74987 15.9997C3.29031 15.9997 2.91654 15.626 2.91654 15.1664C2.91654 14.7068 3.29026 14.333 3.74987 14.333C4.20944 14.333 4.58321 14.7068 4.58321 15.1664C4.58321 15.626 4.20949 15.9997 3.74987 15.9997Z" fill="black"/>
<path d="M25.0001 22.6665H0.000488281V23.4998H25.0001V22.6665Z" fill="black"/>
</g>
<defs>
<clipPath id="clip0">
<rect width="25" height="25" fill="white"/>
</clipPath>
</defs>
</svg>
