<svg width="25" height="23" viewBox="0 0 25 23" fill="none" xmlns="http://www.w3.org/2000/svg">
    <path d="M6.24987 6.6665H1.24996C1.01998 6.6665 0.833313 6.85317 0.833313 7.08315V22.0829C0.833313 22.3133 1.01998 22.4996 1.24996 22.4996H6.24987C6.47985 22.4996 6.66652 22.3133 6.66652 22.0829V7.08315C6.66657 6.85317 6.4799 6.6665 6.24987 6.6665ZM5.83323 21.6663H1.66665V7.49984H5.83323V21.6663Z" fill="black"/>
    <path d="M7.08361 2.5H0.41707C0.187094 2.5 0.000427246 2.68667 0.000427246 2.91664V7.08324C0.000427246 7.31321 0.187094 7.49989 0.41707 7.49989H7.08361C7.31359 7.49989 7.50026 7.31321 7.50026 7.08324V2.91664C7.50031 2.68667 7.31364 2.5 7.08361 2.5ZM6.66697 6.66659H0.833714V3.33329H6.66697V6.66659Z" fill="black"/>
    <path d="M24.583 3.33325H7.08327C6.85329 3.33325 6.66663 3.51992 6.66663 3.7499V6.24986C6.66663 6.47984 6.85329 6.66651 7.08327 6.66651H24.583C24.8134 6.66651 24.9996 6.47984 24.9996 6.24986V3.7499C24.9996 3.51992 24.8134 3.33325 24.583 3.33325ZM24.1663 5.83322H7.49996V4.16659H24.1663V5.83322Z" fill="black"/>
    <path d="M24.583 3.33325H24.1663C24.0426 3.33325 23.9255 3.38823 23.8463 3.48325L21.763 5.98322C21.6597 6.10694 21.6372 6.27989 21.7059 6.42652C21.7742 6.57276 21.9214 6.66651 22.083 6.66651H24.583C24.8134 6.66651 24.9996 6.47984 24.9996 6.24986V3.7499C24.9997 3.51992 24.8134 3.33325 24.583 3.33325ZM24.1663 5.83322H22.9726L24.1663 4.40072V5.83322Z" fill="black"/>
    <path d="M22.0435 3.57324C21.9752 3.427 21.8281 3.33325 21.6664 3.33325H19.5831C19.4594 3.33325 19.3423 3.38823 19.2631 3.48325L17.1798 5.98322C17.0764 6.10694 17.0539 6.27989 17.1227 6.42652C17.191 6.57276 17.3381 6.66651 17.4998 6.66651H19.5831C19.7068 6.66651 19.8239 6.61152 19.9031 6.51651L21.9864 4.01654C22.0897 3.89281 22.1122 3.71987 22.0435 3.57324ZM19.3877 5.83317H18.3894L19.7785 4.16654H20.7768L19.3877 5.83317Z" fill="black"/>
    <path d="M17.4602 3.57324C17.3919 3.427 17.2448 3.33325 17.0831 3.33325H14.9998C14.876 3.33325 14.7589 3.38823 14.6798 3.48325L12.5964 5.98322C12.4931 6.10694 12.4706 6.27989 12.5394 6.42652C12.6077 6.57276 12.7548 6.66651 12.9165 6.66651H14.9998C15.1235 6.66651 15.2406 6.61152 15.3198 6.51651L17.4031 4.01654C17.5064 3.89281 17.5289 3.71987 17.4602 3.57324ZM14.8044 5.83317H13.806L15.1952 4.16654H16.1935L14.8044 5.83317Z" fill="black"/>
    <path d="M12.8773 3.57324C12.809 3.427 12.6619 3.33325 12.5002 3.33325H10.4169C10.2931 3.33325 10.1761 3.38823 10.0969 3.48325L8.01354 5.98322C7.90978 6.10694 7.88727 6.27989 7.95602 6.42652C8.02477 6.57276 8.17184 6.66651 8.33351 6.66651H10.4168C10.5406 6.66651 10.6576 6.61152 10.7368 6.51651L12.8202 4.01654C12.9235 3.89281 12.946 3.71987 12.8773 3.57324ZM10.2215 5.83317H9.22319L10.6119 4.16654H11.6103L10.2215 5.83317Z" fill="black"/>
    <path d="M7.45631 2.73038L6.20634 0.230417C6.13549 0.0891586 5.99135 0 5.83344 0H1.66681C1.5089 0 1.36472 0.0891586 1.29392 0.230417L0.0439352 2.73038C-0.0206633 2.85953 -0.0135833 3.0129 0.0622455 3.1358C0.138514 3.2583 0.272252 3.3333 0.41683 3.3333H7.08337C7.22795 3.3333 7.36169 3.2583 7.43795 3.1358C7.51379 3.01285 7.52086 2.85953 7.45631 2.73038ZM1.09098 2.49997L1.92428 0.833289H5.57587L6.40921 2.49992H1.09098V2.49997Z" fill="black"/>
    <path d="M3.74994 8.33325C2.83076 8.33325 2.08331 9.08075 2.08331 9.99988C2.08331 10.919 2.83081 11.6665 3.74994 11.6665C4.66906 11.6665 5.41656 10.919 5.41656 9.99988C5.41656 9.08075 4.66911 8.33325 3.74994 8.33325ZM3.74994 10.8332C3.29037 10.8332 2.9166 10.4595 2.9166 9.99988C2.9166 9.54032 3.29032 9.16654 3.74994 9.16654C4.2095 9.16654 4.58327 9.54027 4.58327 9.99988C4.58327 10.4595 4.20955 10.8332 3.74994 10.8332Z" fill="black"/>
    <path d="M3.74994 12.4998C2.83076 12.4998 2.08331 13.2473 2.08331 14.1664C2.08331 15.0856 2.83081 15.833 3.74994 15.833C4.66906 15.833 5.41656 15.0855 5.41656 14.1664C5.41661 13.2473 4.66911 12.4998 3.74994 12.4998ZM3.74994 14.9997C3.29037 14.9997 2.9166 14.626 2.9166 14.1664C2.9166 13.7068 3.29032 13.333 3.74994 13.333C4.2095 13.333 4.58327 13.7068 4.58327 14.1664C4.58327 14.626 4.20955 14.9997 3.74994 14.9997Z" fill="black"/>
    <path d="M25 21.6665H0.000427246V22.4998H25V21.6665Z" fill="black"/>
</svg>
