<svg width="23" height="23" viewBox="0 0 23 23" fill="none" xmlns="http://www.w3.org/2000/svg">
    <rect x="0.423077" y="0.423077" width="22.011" height="22.011" rx="2.57692" fill="white" stroke="#E5E5E5" stroke-width="0.846154"/>
    <path d="M5.21149 5.21149V8.63092C5.21032 8.7133 5.22554 8.79509 5.25626 8.87155C5.28699 8.948 5.3326 9.01758 5.39044 9.07625C5.44829 9.13492 5.51722 9.18151 5.59323 9.21331C5.66924 9.24511 5.75081 9.26148 5.8332 9.26148C5.91559 9.26148 5.99717 9.24511 6.07318 9.21331C6.14918 9.18151 6.21812 9.13492 6.27596 9.07625C6.33381 9.01758 6.37942 8.948 6.41014 8.87155C6.44086 8.79509 6.45608 8.7133 6.45492 8.63092V7.33406L9.43477 10.3139C9.49206 10.3736 9.56068 10.4212 9.63661 10.454C9.71254 10.4869 9.79425 10.5042 9.87697 10.505C9.95968 10.5059 10.0417 10.4902 10.1183 10.4589C10.1949 10.4277 10.2645 10.3814 10.323 10.323C10.3814 10.2645 10.4277 10.1949 10.4589 10.1183C10.4902 10.0417 10.5059 9.95968 10.505 9.87697C10.5042 9.79425 10.4869 9.71254 10.454 9.63661C10.4212 9.56068 10.3736 9.49206 10.3139 9.43477L7.33406 6.45492H8.63092C8.7133 6.45608 8.79509 6.44086 8.87155 6.41014C8.948 6.37942 9.01758 6.33381 9.07625 6.27596C9.13492 6.21812 9.18151 6.14918 9.21331 6.07318C9.24511 5.99717 9.26148 5.91559 9.26148 5.8332C9.26148 5.75081 9.24511 5.66924 9.21331 5.59323C9.18151 5.51722 9.13492 5.44829 9.07625 5.39044C9.01758 5.3326 8.948 5.28699 8.87155 5.25626C8.79509 5.22554 8.7133 5.21032 8.63092 5.21149H5.21149ZM14.2263 5.21149C14.144 5.21032 14.0622 5.22554 13.9857 5.25626C13.9093 5.28699 13.8397 5.3326 13.781 5.39044C13.7223 5.44829 13.6757 5.51722 13.6439 5.59323C13.6122 5.66924 13.5958 5.75081 13.5958 5.8332C13.5958 5.91559 13.6122 5.99717 13.6439 6.07318C13.6757 6.14918 13.7223 6.21812 13.781 6.27596C13.8397 6.33381 13.9093 6.37942 13.9857 6.41014C14.0622 6.44086 14.144 6.45608 14.2263 6.45492H15.5232L12.5433 9.43477C12.4837 9.49206 12.436 9.56068 12.4032 9.63661C12.3704 9.71254 12.3531 9.79425 12.3522 9.87697C12.3514 9.95968 12.3671 10.0417 12.3983 10.1183C12.4296 10.1949 12.4758 10.2645 12.5343 10.323C12.5928 10.3814 12.6624 10.4277 12.7389 10.4589C12.8155 10.4902 12.8976 10.5059 12.9803 10.505C13.063 10.5042 13.1447 10.4869 13.2207 10.454C13.2966 10.4212 13.3652 10.3736 13.4225 10.3139L16.4023 7.33406V8.63092C16.4012 8.7133 16.4164 8.79509 16.4471 8.87155C16.4778 8.948 16.5234 9.01758 16.5813 9.07625C16.6391 9.13492 16.7081 9.18151 16.7841 9.21331C16.8601 9.24511 16.9417 9.26148 17.0241 9.26148C17.1064 9.26148 17.188 9.24511 17.264 9.21331C17.34 9.18151 17.409 9.13492 17.4668 9.07625C17.5247 9.01758 17.5703 8.948 17.601 8.87155C17.6317 8.79509 17.6469 8.7133 17.6458 8.63092V5.21149H14.2263ZM9.8622 12.3551C9.70068 12.3599 9.54738 12.4274 9.43477 12.5433L6.45492 15.5232V14.2263C6.45605 14.1432 6.44051 14.0607 6.4092 13.9837C6.3779 13.9067 6.33146 13.8367 6.27265 13.778C6.21384 13.7192 6.14384 13.6728 6.06679 13.6416C5.98975 13.6104 5.90722 13.5949 5.8241 13.5961C5.65931 13.5985 5.50223 13.6663 5.38736 13.7844C5.27249 13.9026 5.20923 14.0616 5.21149 14.2263V17.6458H8.63092C8.7133 17.6469 8.79509 17.6317 8.87155 17.601C8.948 17.5703 9.01758 17.5247 9.07625 17.4668C9.13492 17.409 9.18151 17.34 9.21331 17.264C9.24511 17.188 9.26148 17.1064 9.26148 17.0241C9.26148 16.9417 9.24511 16.8601 9.21331 16.7841C9.18151 16.7081 9.13492 16.6391 9.07625 16.5813C9.01758 16.5234 8.948 16.4778 8.87155 16.4471C8.79509 16.4164 8.7133 16.4012 8.63092 16.4023H7.33406L10.3139 13.4225C10.4038 13.3352 10.4651 13.2227 10.49 13.0999C10.5148 12.9771 10.502 12.8497 10.4531 12.7343C10.4043 12.6189 10.3218 12.521 10.2163 12.4533C10.1109 12.3857 9.98744 12.3514 9.8622 12.3551ZM12.9762 12.3551C12.8526 12.3553 12.7318 12.3923 12.6293 12.4614C12.5268 12.5305 12.4473 12.6287 12.4008 12.7432C12.3544 12.8578 12.3431 12.9836 12.3685 13.1046C12.3939 13.2256 12.4547 13.3363 12.5433 13.4225L15.5232 16.4023H14.2263C14.144 16.4012 14.0622 16.4164 13.9857 16.4471C13.9093 16.4778 13.8397 16.5234 13.781 16.5813C13.7223 16.6391 13.6757 16.7081 13.6439 16.7841C13.6122 16.8601 13.5958 16.9417 13.5958 17.0241C13.5958 17.1064 13.6122 17.188 13.6439 17.264C13.6757 17.34 13.7223 17.409 13.781 17.4668C13.8397 17.5247 13.9093 17.5703 13.9857 17.601C14.0622 17.6317 14.144 17.6469 14.2263 17.6458H17.6458V14.2263C17.6469 14.1432 17.6314 14.0607 17.6001 13.9837C17.5687 13.9067 17.5223 13.8367 17.4635 13.778C17.4047 13.7192 17.3347 13.6728 17.2576 13.6416C17.1806 13.6104 17.0981 13.5949 17.0149 13.5961C16.8502 13.5985 16.6931 13.6663 16.5782 13.7844C16.4633 13.9026 16.4001 14.0616 16.4023 14.2263V15.5232L13.4225 12.5433C13.3645 12.4837 13.2951 12.4363 13.2184 12.404C13.1418 12.3717 13.0594 12.3551 12.9762 12.3551Z" fill="#333333"/>
</svg>
