<svg width="25" height="20" viewBox="0 0 25 20" fill="none" xmlns="http://www.w3.org/2000/svg">
    <path d="M12.5 14.4887C11.2398 14.4887 10.217 15.5705 10.217 16.9034C10.217 18.2364 11.2398 19.3182 12.5 19.3182C13.7602 19.3182 14.783 18.2364 14.783 16.9034C14.783 15.5705 13.7602 14.4887 12.5 14.4887ZM24.7323 6.04579C21.6792 2.20309 17.2204 0 12.5 0C7.77952 0 3.32153 2.20309 0.267635 6.04579C-0.138008 6.55613 -0.0755893 7.31758 0.40767 7.74659C0.621481 7.93656 0.881004 8.02998 1.14049 8.02998C1.46618 8.02998 1.78964 7.8834 2.01562 7.59933C4.63347 4.30477 8.45526 2.41481 12.5 2.41481C16.5447 2.41481 20.3664 4.30477 22.9842 7.59851C23.2103 7.88265 23.5337 8.02916 23.8594 8.02916C24.1189 8.02916 24.3792 7.93656 24.593 7.74584C25.0755 7.31754 25.1379 6.5553 24.7323 6.04579ZM12.5 4.82954C9.12801 4.82954 5.94396 6.40312 3.76296 9.14713C3.35735 9.65746 3.41973 10.4189 3.90299 10.8479C4.1168 11.0379 4.37706 11.1313 4.63658 11.1313C4.96228 11.1313 5.28573 10.9848 5.51098 10.7007C7.25594 8.50402 9.80382 7.2443 12.5 7.2443C15.1963 7.2443 17.744 8.50402 19.4898 10.7007C19.7158 10.9856 20.0393 11.1313 20.3642 11.1313C20.6237 11.1313 20.884 11.0387 21.0978 10.8479C21.581 10.4189 21.6434 9.65671 21.2379 9.14713C19.056 6.40317 15.872 4.82954 12.5 4.82954ZM12.5 9.6591C10.4757 9.6591 8.56481 10.6032 7.25746 12.2493C6.85182 12.7596 6.91424 13.5211 7.39749 13.9501C7.61128 14.1401 7.8716 14.2334 8.13109 14.2334C8.45675 14.2334 8.78025 14.087 9.00547 13.8028C9.87835 12.7041 11.1522 12.0738 12.5 12.0738C13.8477 12.0738 15.1217 12.7041 15.9945 13.8028C16.2205 14.0878 16.5439 14.2334 16.8689 14.2334C17.1284 14.2334 17.3887 14.1409 17.6025 13.9501C18.0858 13.521 18.1481 12.7596 17.7425 12.2493C16.4351 10.6032 14.5242 9.6591 12.5 9.6591Z" fill="#333333"/>
</svg>
